<svg xmlns="http://www.w3.org/2000/svg" width="199" height="71" viewBox="0 0 199 71" fill="none">
<g filter="url(#filter0_d_3_52)">
<g filter="url(#filter1_ii_3_52)">
<rect x="5" y="3" width="189" height="61" rx="12" fill="url(#paint0_linear_3_52)"></rect>
</g>
<rect x="4.5" y="2.5" width="190" height="62" rx="12.5" stroke="url(#paint1_linear_3_52)"></rect>
<g filter="url(#filter2_i_3_52)">
<path d="M53.4182 44V19.4828H62.8037C64.5754 19.4828 66.0479 19.7622 67.2211 20.3208C68.4022 20.8715 69.2841 21.6257 69.8667 22.5834C70.4573 23.5411 70.7526 24.6265 70.7526 25.8396C70.7526 26.8372 70.5611 27.6911 70.178 28.4014C69.7949 29.1037 69.2801 29.6744 68.6337 30.1133C67.9872 30.5523 67.265 30.8675 66.4669 31.0591V31.2985C67.3368 31.3464 68.1708 31.6137 68.9689 32.1006C69.7749 32.5794 70.4334 33.2578 70.9441 34.1357C71.4549 35.0136 71.7103 36.075 71.7103 37.32C71.7103 38.589 71.403 39.7302 70.7885 40.7438C70.174 41.7494 69.2482 42.5435 68.0112 43.1261C66.7741 43.7087 65.2179 44 63.3424 44H53.4182ZM57.8595 40.2889H62.6361C64.2482 40.2889 65.4094 39.9816 66.1197 39.3671C66.838 38.7446 67.1971 37.9465 67.1971 36.9729C67.1971 36.2466 67.0176 35.5922 66.6584 35.0096C66.2993 34.419 65.7885 33.9561 65.1261 33.6209C64.4637 33.2777 63.6736 33.1061 62.7558 33.1061H57.8595V40.2889ZM57.8595 29.9098H62.253C63.0192 29.9098 63.7095 29.7701 64.324 29.4908C64.9386 29.2035 65.4214 28.8005 65.7726 28.2817C66.1317 27.755 66.3113 27.1325 66.3113 26.4142C66.3113 25.4645 65.9761 24.6824 65.3057 24.0678C64.6433 23.4533 63.6576 23.146 62.3488 23.146H57.8595V29.9098ZM73.0227 44V25.6121H77.2246V28.6768H77.4162C77.7514 27.6153 78.326 26.7973 79.14 26.2227C79.9621 25.6401 80.8998 25.3488 81.9533 25.3488C82.1927 25.3488 82.4601 25.3607 82.7554 25.3847C83.0586 25.4006 83.31 25.4286 83.5096 25.4685V29.4549C83.326 29.3911 83.0347 29.3352 82.6356 29.2873C82.2446 29.2314 81.8655 29.2035 81.4984 29.2035C80.7083 29.2035 79.998 29.3751 79.3675 29.7183C78.745 30.0535 78.2542 30.5203 77.895 31.1189C77.5359 31.7175 77.3563 32.4078 77.3563 33.1899V44H73.0227ZM88.991 44.3711C87.8258 44.3711 86.7763 44.1636 85.8425 43.7486C84.9167 43.3256 84.1825 42.7031 83.6398 41.8811C83.1051 41.0591 82.8377 40.0455 82.8377 38.8404C82.8377 37.8029 83.0293 36.9449 83.4123 36.2666C83.7954 35.5882 84.3182 35.0455 84.9806 34.6385C85.643 34.2314 86.3892 33.9242 87.2192 33.7167C88.0572 33.5012 88.9231 33.3456 89.817 33.2498C90.8944 33.1381 91.7683 33.0383 92.4387 32.9505C93.1091 32.8547 93.5959 32.7111 93.8992 32.5195C94.2104 32.32 94.3661 32.0128 94.3661 31.5978V31.5259C94.3661 30.6241 94.0987 29.9258 93.564 29.431C93.0293 28.9361 92.2591 28.6887 91.2535 28.6887C90.1921 28.6887 89.3501 28.9202 88.7276 29.3831C88.1131 29.846 87.6981 30.3927 87.4826 31.0231L83.4363 30.4485C83.7555 29.3312 84.2823 28.3974 85.0165 27.6472C85.7507 26.8891 86.6486 26.3224 87.71 25.9473C88.7715 25.5642 89.9447 25.3727 91.2296 25.3727C92.1155 25.3727 92.9973 25.4764 93.8752 25.6839C94.7531 25.8915 95.5552 26.2346 96.2815 26.7135C97.0077 27.1843 97.5903 27.8268 98.0293 28.6409C98.4762 29.4549 98.6997 30.4725 98.6997 31.6935V44H94.5337V41.4741H94.39C94.1266 41.9848 93.7555 42.4637 93.2767 42.9106C92.8058 43.3496 92.2112 43.7047 91.493 43.9761C90.7827 44.2394 89.9487 44.3711 88.991 44.3711ZM90.1163 41.1868C90.9862 41.1868 91.7404 41.0152 92.3788 40.672C93.0173 40.3208 93.5081 39.8579 93.8513 39.2833C94.2025 38.7087 94.378 38.0822 94.378 37.4038V35.237C94.2424 35.3488 94.0109 35.4525 93.6837 35.5483C93.3645 35.644 93.0053 35.7278 92.6063 35.7997C92.2072 35.8715 91.8122 35.9354 91.4211 35.9912C91.0301 36.0471 90.6909 36.095 90.4036 36.1349C89.7571 36.2227 89.1785 36.3663 88.6677 36.5658C88.157 36.7654 87.7539 37.0447 87.4586 37.4038C87.1633 37.755 87.0157 38.2099 87.0157 38.7686C87.0157 39.5666 87.307 40.1692 87.8896 40.5762C88.4722 40.9832 89.2144 41.1868 90.1163 41.1868ZM105.031 33.2259V44H100.697V25.6121H104.839V28.7366H105.055C105.478 27.7071 106.152 26.8891 107.078 26.2825C108.012 25.676 109.165 25.3727 110.538 25.3727C111.807 25.3727 112.912 25.644 113.854 26.1867C114.804 26.7294 115.538 27.5156 116.057 28.5451C116.583 29.5746 116.843 30.8236 116.835 32.2921V44H112.501V32.9625C112.501 31.7334 112.182 30.7717 111.543 30.0774C110.913 29.3831 110.039 29.0359 108.922 29.0359C108.164 29.0359 107.489 29.2035 106.899 29.5387C106.316 29.8659 105.857 30.3408 105.522 30.9633C105.195 31.5858 105.031 32.34 105.031 33.2259ZM125.704 44.3232C124.259 44.3232 122.967 43.9521 121.825 43.2099C120.684 42.4677 119.782 41.3903 119.12 39.9777C118.457 38.565 118.126 36.8492 118.126 34.83C118.126 32.7869 118.461 31.063 119.132 29.6584C119.81 28.2458 120.724 27.1804 121.873 26.4621C123.022 25.7358 124.303 25.3727 125.716 25.3727C126.793 25.3727 127.679 25.5563 128.374 25.9234C129.068 26.2825 129.619 26.7175 130.026 27.2282C130.433 27.731 130.748 28.2059 130.971 28.6528H131.151V19.4828H135.496V44H131.235V41.103H130.971C130.748 41.5499 130.425 42.0247 130.002 42.5275C129.579 43.0223 129.02 43.4453 128.326 43.7965C127.631 44.1476 126.757 44.3232 125.704 44.3232ZM126.913 40.7678C127.831 40.7678 128.613 40.5203 129.259 40.0255C129.906 39.5227 130.397 38.8244 130.732 37.9306C131.067 37.0367 131.235 35.9952 131.235 34.8061C131.235 33.6169 131.067 32.5834 130.732 31.7055C130.405 30.8276 129.918 30.1452 129.271 29.6584C128.633 29.1716 127.847 28.9282 126.913 28.9282C125.947 28.9282 125.141 29.1796 124.495 29.6824C123.848 30.1851 123.362 30.8795 123.034 31.7654C122.707 32.6512 122.544 33.6648 122.544 34.8061C122.544 35.9553 122.707 36.9808 123.034 37.8827C123.37 38.7765 123.86 39.4828 124.507 40.0016C125.161 40.5124 125.963 40.7678 126.913 40.7678ZM137.755 44V25.6121H142.088V44H137.755ZM139.933 23.0024C139.247 23.0024 138.656 22.7749 138.162 22.32C137.667 21.8571 137.419 21.3025 137.419 20.656C137.419 20.0016 137.667 19.4469 138.162 18.992C138.656 18.5291 139.247 18.2977 139.933 18.2977C140.628 18.2977 141.218 18.5291 141.705 18.992C142.2 19.4469 142.447 20.0016 142.447 20.656C142.447 21.3025 142.2 21.8571 141.705 22.32C141.218 22.7749 140.628 23.0024 139.933 23.0024ZM148.518 33.2259V44H144.185V25.6121H148.327V28.7366H148.542C148.965 27.7071 149.64 26.8891 150.565 26.2825C151.499 25.676 152.652 25.3727 154.025 25.3727C155.294 25.3727 156.399 25.644 157.341 26.1867C158.291 26.7294 159.025 27.5156 159.544 28.5451C160.071 29.5746 160.33 30.8236 160.322 32.2921V44H155.988V32.9625C155.988 31.7334 155.669 30.7717 155.031 30.0774C154.4 29.3831 153.526 29.0359 152.409 29.0359C151.651 29.0359 150.976 29.2035 150.386 29.5387C149.803 29.8659 149.344 30.3408 149.009 30.9633C148.682 31.5858 148.518 32.34 148.518 33.2259ZM170.365 51.2785C168.808 51.2785 167.471 51.067 166.354 50.6441C165.237 50.2291 164.339 49.6704 163.661 48.9681C162.982 48.2658 162.511 47.4876 162.248 46.6337L166.151 45.6879C166.326 46.0471 166.582 46.4022 166.917 46.7534C167.252 47.1125 167.703 47.4078 168.27 47.6393C168.844 47.8787 169.566 47.9984 170.436 47.9984C171.665 47.9984 172.683 47.6991 173.489 47.1006C174.295 46.51 174.698 45.5363 174.698 44.1796V40.6959H174.483C174.259 41.1429 173.932 41.6018 173.501 42.0726C173.078 42.5435 172.515 42.9385 171.813 43.2578C171.119 43.577 170.245 43.7366 169.191 43.7366C167.779 43.7366 166.498 43.4054 165.349 42.743C164.207 42.0726 163.297 41.075 162.619 39.7502C161.949 38.4174 161.614 36.7494 161.614 34.7462C161.614 32.727 161.949 31.0231 162.619 29.6345C163.297 28.2378 164.211 27.1804 165.361 26.4621C166.51 25.7358 167.791 25.3727 169.203 25.3727C170.281 25.3727 171.167 25.5563 171.861 25.9234C172.563 26.2825 173.122 26.7175 173.537 27.2282C173.952 27.731 174.267 28.2059 174.483 28.6528H174.722V25.6121H178.996V44.2993C178.996 45.8715 178.621 47.1724 177.87 48.2019C177.12 49.2314 176.095 50.0016 174.794 50.5124C173.493 51.0231 172.017 51.2785 170.365 51.2785ZM170.4 40.3368C171.318 40.3368 172.1 40.1133 172.747 39.6664C173.393 39.2195 173.884 38.577 174.219 37.739C174.554 36.901 174.722 35.8954 174.722 34.7223C174.722 33.565 174.554 32.5515 174.219 31.6816C173.892 30.8116 173.405 30.1373 172.759 29.6584C172.12 29.1716 171.334 28.9282 170.4 28.9282C169.435 28.9282 168.629 29.1796 167.982 29.6824C167.336 30.1851 166.849 30.8755 166.522 31.7534C166.195 32.6233 166.031 33.6129 166.031 34.7223C166.031 35.8476 166.195 36.8332 166.522 37.6792C166.857 38.5172 167.348 39.1716 167.994 39.6425C168.649 40.1053 169.451 40.3368 170.4 40.3368Z" fill="url(#paint2_linear_3_52)"></path>
</g>
<g filter="url(#filter3_i_3_52)">
<path d="M34.647 36.2041L26.028 44.7965C25.6458 45.18 25.1916 45.4838 24.6918 45.6904C24.192 45.897 23.6563 46.0022 23.1157 46L18.4021 45.9806C18.0359 45.9791 17.685 45.8324 17.426 45.5726C17.167 45.3128 17.0208 44.9608 17.0193 44.5934L17 39.8647C16.9983 39.3231 17.1035 38.7864 17.3093 38.2857C17.5152 37.785 17.8178 37.33 18.1996 36.9471L26.8187 28.3508L24.8631 26.387C24.7341 26.2583 24.6318 26.1053 24.562 25.9367C24.4922 25.7682 24.4563 25.5876 24.4563 25.4051C24.4563 25.2226 24.4922 25.0419 24.562 24.8734C24.6318 24.7049 24.7341 24.5519 24.8631 24.4232L25.1832 24.1001C25.5424 23.7409 25.9756 23.4651 26.4524 23.292C26.9292 23.1188 27.438 23.0525 27.9431 23.0978L30.4214 23.3242C30.8243 23.3605 31.2302 23.3076 31.6104 23.1692C31.9907 23.0308 32.336 22.8102 32.622 22.5232L34.4291 20.7161C35.3702 19.7453 36.6266 19.1447 37.971 19.023C39.3154 18.9012 40.6587 19.2664 41.7579 20.0525C42.3977 20.5279 42.9278 21.1362 43.3121 21.8357C43.6964 22.5353 43.9259 23.3098 43.9848 24.1063C44.0437 24.9029 43.9308 25.7029 43.6537 26.4517C43.3765 27.2005 42.9417 27.8806 42.3789 28.4456L40.4503 30.3804C40.1634 30.6679 39.9431 31.0153 39.8051 31.3978C39.6671 31.7803 39.6148 32.1887 39.6518 32.5938L39.8755 35.08C39.9221 35.5865 39.8568 36.0971 39.6841 36.5753C39.5114 37.0536 39.2357 37.4877 38.8765 37.8468L38.5564 38.1699C38.428 38.2992 38.2755 38.4018 38.1076 38.4719C37.9396 38.5419 37.7595 38.578 37.5776 38.578C37.3957 38.578 37.2156 38.5419 37.0476 38.4719C36.8796 38.4018 36.7271 38.2992 36.5988 38.1699L34.647 36.2041ZM27.4146 40.0427L33.0077 34.4628L28.6586 30.0921L20.7242 37.9977L27.4146 40.0427Z" fill="url(#paint3_linear_3_52)"></path>
</g>
</g>
<defs>
<filter id="filter0_d_3_52" x="0" y="0" width="199" height="71" filterUnits="userSpaceOnUse" color-interpolation-filters="sRGB">
<feFlood flood-opacity="0" result="BackgroundImageFix"></feFlood>
<feColorMatrix in="SourceAlpha" type="matrix" values="0 0 0 0 0 0 0 0 0 0 0 0 0 0 0 0 0 0 127 0" result="hardAlpha"></feColorMatrix>
<feOffset dy="2"></feOffset>
<feGaussianBlur stdDeviation="2"></feGaussianBlur>
<feComposite in2="hardAlpha" operator="out"></feComposite>
<feColorMatrix type="matrix" values="0 0 0 0 0 0 0 0 0 0 0 0 0 0 0 0 0 0 0.15 0"></feColorMatrix>
<feBlend mode="normal" in2="BackgroundImageFix" result="effect1_dropShadow_3_52"></feBlend>
<feBlend mode="normal" in="SourceGraphic" in2="effect1_dropShadow_3_52" result="shape"></feBlend>
</filter>
<filter id="filter1_ii_3_52" x="4" y="1.5" width="191" height="64" filterUnits="userSpaceOnUse" color-interpolation-filters="sRGB">
<feFlood flood-opacity="0" result="BackgroundImageFix"></feFlood>
<feBlend mode="normal" in="SourceGraphic" in2="BackgroundImageFix" result="shape"></feBlend>
<feColorMatrix in="SourceAlpha" type="matrix" values="0 0 0 0 0 0 0 0 0 0 0 0 0 0 0 0 0 0 127 0" result="hardAlpha"></feColorMatrix>
<feOffset dy="2"></feOffset>
<feGaussianBlur stdDeviation="0.25"></feGaussianBlur>
<feComposite in2="hardAlpha" operator="arithmetic" k2="-1" k3="1"></feComposite>
<feColorMatrix type="matrix" values="0 0 0 0 1 0 0 0 0 1 0 0 0 0 1 0 0 0 1 0"></feColorMatrix>
<feBlend mode="normal" in2="shape" result="effect1_innerShadow_3_52"></feBlend>
<feColorMatrix in="SourceAlpha" type="matrix" values="0 0 0 0 0 0 0 0 0 0 0 0 0 0 0 0 0 0 127 0" result="hardAlpha"></feColorMatrix>
<feOffset dy="-3.5"></feOffset>
<feGaussianBlur stdDeviation="0.25"></feGaussianBlur>
<feComposite in2="hardAlpha" operator="arithmetic" k2="-1" k3="1"></feComposite>
<feColorMatrix type="matrix" values="0 0 0 0 1 0 0 0 0 0.701853 0 0 0 0 0.337451 0 0 0 0.3 0"></feColorMatrix>
<feBlend mode="normal" in2="effect1_innerShadow_3_52" result="effect2_innerShadow_3_52"></feBlend>
</filter>
<filter id="filter2_i_3_52" x="53.4182" y="18.2977" width="125.578" height="33.4809" filterUnits="userSpaceOnUse" color-interpolation-filters="sRGB">
<feFlood flood-opacity="0" result="BackgroundImageFix"></feFlood>
<feBlend mode="normal" in="SourceGraphic" in2="BackgroundImageFix" result="shape"></feBlend>
<feColorMatrix in="SourceAlpha" type="matrix" values="0 0 0 0 0 0 0 0 0 0 0 0 0 0 0 0 0 0 127 0" result="hardAlpha"></feColorMatrix>
<feOffset dy="0.7"></feOffset>
<feGaussianBlur stdDeviation="0.25"></feGaussianBlur>
<feComposite in2="hardAlpha" operator="arithmetic" k2="-1" k3="1"></feComposite>
<feColorMatrix type="matrix" values="0 0 0 0 0.937956 0 0 0 0 0.687834 0 0 0 0 0 0 0 0 1 0"></feColorMatrix>
<feBlend mode="normal" in2="shape" result="effect1_innerShadow_3_52"></feBlend>
</filter>
<filter id="filter3_i_3_52" x="17" y="19" width="27" height="27.5" filterUnits="userSpaceOnUse" color-interpolation-filters="sRGB">
<feFlood flood-opacity="0" result="BackgroundImageFix"></feFlood>
<feBlend mode="normal" in="SourceGraphic" in2="BackgroundImageFix" result="shape"></feBlend>
<feColorMatrix in="SourceAlpha" type="matrix" values="0 0 0 0 0 0 0 0 0 0 0 0 0 0 0 0 0 0 127 0" result="hardAlpha"></feColorMatrix>
<feOffset dy="0.7"></feOffset>
<feGaussianBlur stdDeviation="0.25"></feGaussianBlur>
<feComposite in2="hardAlpha" operator="arithmetic" k2="-1" k3="1"></feComposite>
<feColorMatrix type="matrix" values="0 0 0 0 0.937956 0 0 0 0 0.687834 0 0 0 0 0 0 0 0 1 0"></feColorMatrix>
<feBlend mode="normal" in2="shape" result="effect1_innerShadow_3_52"></feBlend>
</filter>
<linearGradient id="paint0_linear_3_52" x1="99.5" y1="3" x2="99.5" y2="64" gradientUnits="userSpaceOnUse">
<stop stop-color="#FFF7D8"></stop>
<stop offset="1" stop-color="#FFE6AA"></stop>
</linearGradient>
<linearGradient id="paint1_linear_3_52" x1="99.5" y1="3" x2="99.5" y2="64" gradientUnits="userSpaceOnUse">
<stop stop-color="#FFC956" stop-opacity="0.25"></stop>
<stop offset="1" stop-color="#FFB03A"></stop>
</linearGradient>
<linearGradient id="paint2_linear_3_52" x1="116.5" y1="11" x2="116.5" y2="52" gradientUnits="userSpaceOnUse">
<stop stop-color="#FFD45E" stop-opacity="0.25"></stop>
<stop offset="1" stop-color="#FCBF17"></stop>
</linearGradient>
<linearGradient id="paint3_linear_3_52" x1="30.5" y1="19" x2="30.5" y2="46" gradientUnits="userSpaceOnUse">
<stop stop-color="#FFD45E" stop-opacity="0.25"></stop>
<stop offset="1" stop-color="#FCBF17"></stop>
</linearGradient>
</defs>
</svg>